<?xml version="1.0" standalone="no"?>
<!DOCTYPE svg PUBLIC "-//W3C//DTD SVG 1.1//EN" "http://www.w3.org/Graphics/SVG/1.1/DTD/svg11.dtd" >
<svg xmlns="http://www.w3.org/2000/svg">
<metadata>
Created by FontForge 20120731 at Thu Dec 29 17:07:01 2016
 By admin
</metadata>
<defs>
<font id="iconfont" horiz-adv-x="1024" >
  <font-face 
    font-family="iconfont"
    font-weight="500"
    font-stretch="normal"
    units-per-em="1024"
    panose-1="2 0 6 3 0 0 0 0 0 0"
    ascent="896"
    descent="-128"
    x-height="792"
    bbox="44 -78 974 846"
    underline-thickness="0"
    underline-position="0"
    unicode-range="U+0078-E62E"
  />
<missing-glyph 
 />
    <glyph glyph-name=".notdef" 
 />
    <glyph glyph-name=".notdef" 
 />
    <glyph glyph-name=".null" horiz-adv-x="0" 
 />
    <glyph glyph-name="nonmarkingreturn" horiz-adv-x="341" 
 />
    <glyph glyph-name="x" unicode="x" horiz-adv-x="1001" 
d="M281 543q-27 -1 -53 -1h-83q-18 0 -36.5 -6t-32.5 -18.5t-23 -32t-9 -45.5v-76h912v41q0 16 -0.5 30t-0.5 18q0 13 -5 29t-17 29.5t-31.5 22.5t-49.5 9h-133v-97h-438v97zM955 310v-52q0 -23 0.5 -52t0.5 -58t-10.5 -47.5t-26 -30t-33 -16t-31.5 -4.5q-14 -1 -29.5 -0.5
t-29.5 0.5h-32l-45 128h-439l-44 -128h-29h-34q-20 0 -45 1q-25 0 -41 9.5t-25.5 23t-13.5 29.5t-4 30v167h911zM163 247q-12 0 -21 -8.5t-9 -21.5t9 -21.5t21 -8.5q13 0 22 8.5t9 21.5t-9 21.5t-22 8.5zM316 123q-8 -26 -14 -48q-5 -19 -10.5 -37t-7.5 -25t-3 -15t1 -14.5
t9.5 -10.5t21.5 -4h37h67h81h80h64h36q23 0 34 12t2 38q-5 13 -9.5 30.5t-9.5 34.5q-5 19 -11 39h-368zM336 498v228q0 11 2.5 23t10 21.5t20.5 15.5t34 6h188q31 0 51.5 -14.5t20.5 -52.5v-227h-327z" />
    <glyph glyph-name="data" unicode="&#xe603;" 
d="M944 65h-806q-12 0 -20.5 8t-8.5 19v638q0 11 -8.5 18.5t-20.5 7.5t-20 -7.5t-8 -18.5v-665q0 -22 16.5 -37.5t40.5 -15.5h835q12 0 20.5 7.5t8.5 19t-8.5 19t-20.5 7.5zM195 278h57q17 -1 26 12l61 90l88 -181q5 -11 19 -15q12 -2 22 3t14 15l118 357l86 -260
q2 -9 10 -15t18 -6h144q3 0 7 1q17 -28 50 -28q24 0 41 15.5t17 37.5t-17 37.5t-41 15.5q-33 0 -50 -27q-5 1 -7 1h-122l-108 326q-4 11 -14.5 16t-21.5 2q-8 -3 -13 -8t-7 -10l-122 -372l-78 161q-3 6 -6 9q-1 0 -1 1v0q-15 13 -32 5q-10 -4 -14 -12l-80 -119h-42
q-12 0 -20.5 -7.5t-8.5 -18.5q-1 -11 7 -18.5t20 -7.5z" />
    <glyph glyph-name="exchange-button" unicode="&#xe604;" 
d="M922 845h-820q-21 0 -36 -15t-15 -36v-820q0 -21 15 -36t36 -15h820q21 0 36 15t15 36v820q0 21 -15 36t-36 15zM853 453l-210 -168q-12 -10 -26.5 -3t-14.5 23v54h-205q-11 0 -18 7q-8 8 -8 18v27l-144 -116l144 -115v27q0 10 7.5 17.5t17.5 7.5h142q11 0 18 -7t7 -18
t-7.5 -18.5t-17.5 -7.5h-116v-54q0 -15 -14 -23q-6 -2 -11 -2q-9 0 -16 6l-210 167q-10 8 -10 20t10 20l210 168q12 10 26.5 3.5t14.5 -23.5v-53h205q11 0 18 -7.5t7 -18.5v-27l144 116l-144 115v-27q0 -10 -7 -17.5t-18 -7.5h-134q-11 0 -18.5 7t-7.5 18t7.5 18.5t18.5 7.5
h109v54q0 15 14 23q15 7 27 -4l210 -167q10 -8 10 -20q0 -13 -10 -20z" />
    <glyph glyph-name="document-set" unicode="&#xe605;" 
d="M915 166l58 36l-22 52l-66 -15q-13 19 -34 34l15 66l-51 22l-36 -57q-24 4 -48 1l-36 57l-52 -21l14 -66q-20 -15 -34 -34l-65 16l-22 -52l56 -37q-3 -24 0 -48l-56 -36l21 -52l66 15q15 -21 34 -35l-15 -65l51 -22l37 57q25 -4 48 0l37 -57l52 21l-16 66q18 13 35 34
l66 -15l21 52l-57 36q2 24 -1 47zM850.5 102q-16.5 -40 -56.5 -56.5t-80 0.5t-56 57t0 79q17 40 57 56.5t79.5 0t56 -56.5t0 -80zM267 556h388v-70h-388v70zM267 360h268v-69h-268v69zM267 187h194v-69h-194v69zM535 -16h-345q-29 0 -52.5 24t-23.5 53l1 466q0 41 75 41h104
q14 0 24.5 10t10.5 25v105q0 17 0.5 25t2 21.5t7 21t14.5 9.5h294q29 0 52.5 -24.5t23.5 -53.5v-289h62v289q0 57 -40.5 97.5t-97.5 40.5h-319q-25 0 -52.5 -21t-78.5 -73l-26 -26l-26 -26q-52 -51 -73 -78.5t-21 -52.5v-507q0 -57 40.5 -98t97.5 -41h345v62h1z" />
    <glyph glyph-name="personal-information" unicode="&#xe606;" 
d="M406.5 748q-77.5 0 -132 -56t-54.5 -135.5t54.5 -135.5t132.5 -56q77 0 131.5 56t54.5 135.5t-54.5 135.5t-132 56zM406.5 429q-50.5 0 -86.5 37t-36 91q0 52 36 90t86.5 38t86.5 -37.5t36 -91t-36 -90.5t-86.5 -37zM51 54q-1 -14 8.5 -24t23.5 -10h647q14 0 23.5 10
t8.5 24q-9 122 -82 205t-173 83h-201q-100 0 -173 -83t-82 -205zM507 278q74 0 129 -65.5t62 -162.5l32 34h-647l32 -34q7 97 62 162.5t129 65.5h201zM941 604q13 0 22.5 9.5t9.5 22.5t-9.5 22.5t-22.5 9.5h-232q-13 0 -22.5 -9.5t-9.5 -22.5t9.5 -22.5t22.5 -9.5h232z
M941 430q13 0 22.5 9t9.5 22t-9.5 22.5t-22.5 9.5h-246q-13 0 -22.5 -9.5t-9.5 -22.5t9.5 -22t22.5 -9h246zM941 255q13 0 22.5 9.5t9.5 22.5t-9.5 22t-22.5 9h-190q-13 0 -22.5 -9t-9.5 -22t9.5 -22.5t22.5 -9.5h190z" />
    <glyph glyph-name="sort" unicode="&#xe607;" 
d="M224 499h576l-288 346zM800 269h-576l288 -346z" />
    <glyph glyph-name="edit-button" unicode="&#xe608;" 
d="M922 845h-820q-21 0 -36 -15t-15 -36v-820q0 -21 15 -36t36 -15h820q21 0 36 15t15 36v820q0 21 -15 36t-36 15zM799 69q0 -9 -6 -15t-15 -6h-595q-9 0 -15.5 6t-6.5 15v532q0 10 8 16q6 5 14 5h250q9 0 15.5 -6.5t6.5 -14.5v-2q0 -9 -6.5 -15.5t-15.5 -6.5h-227v-484
h548v234q0 9 6 15.5t15 6.5h2q9 0 15.5 -6.5t6.5 -15.5v-258v0zM856.5 492.5q-6.5 -6.5 -15.5 -6.5t-15 7l-168 167q-3 4 -8 4t-8 -4l-289 -289q55 -20 97.5 -62t62.5 -98l224 224q6 6 15 6t15 -6h1q6 -6 6 -15.5t-6 -15.5l-243 -243v0l-8 -9h-201q-8 0 -14.5 6.5t-6.5 15.5
v194l-4 2l5 5l339 339q6 6 15 6t16 -6l191 -191q6 -6 6 -16q0 -8 -6.5 -14.5zM340 310v-111h112q6 0 10 5q3 6 0 11q-33 72 -106 106q-3 1 -4 1q-12 -1 -12 -12z" />
    <glyph glyph-name="contract" unicode="&#xe609;" 
d="M676 462.5q0 9.5 -7 16.5t-16 7h-337q-10 0 -17 -7t-7 -16.5t7 -16.5t17 -7h337q10 0 16.5 7t6.5 16.5zM809 844l-618 -2q-9 0 -16 -7t-7 -16.5t7 -16.5t16 -7l618 2q48 0 82.5 -34.5t34.5 -82.5v-591q0 -10 7 -16.5t16.5 -6.5t16.5 6.5t7 16.5v591q0 68 -48 116t-116 48
zM641.5 318q-65.5 0 -112 -46.5t-46.5 -112t46.5 -111.5t112 -46t112 46t46.5 111.5t-46.5 112t-112 46.5zM641.5 33q-51.5 0 -88.5 37t-37 89t37 88.5t88.5 36.5t88.5 -36.5t37 -88.5t-37 -89t-88.5 -37zM316 542h337q9 0 16 7t7 16.5t-7 16.5t-16 7h-337q-10 0 -17 -7
t-7 -16.5t7 -16.5t17 -7zM735 182q-3 10 -14 12l-44 6l-20 41q-4 8 -15 8t-15 -8l-20 -41l-44 -6q-10 -2 -14 -12q-3 -10 4 -17l33 -31l-8 -45q-2 -11 7 -16q8 -6 17 -1l40 21l40 -21q5 -2 8 -2q6 0 9 3q9 6 7 16l-8 45l33 31q6 8 4 17zM668 151q-6 -6 -4 -15l3 -20l-18 10
q-5 2 -7 2q-5 0 -8 -2l-18 -9l4 20q1 8 -5 15l-14 14l20 3q9 2 12 9l10 19l9 -19q4 -8 12 -9l20 -3zM725 757h-510q-68 0 -116 -48t-48 -116v-505q0 -68 48 -116t116 -48h510q68 0 116 48t48 116v505q0 68 -48 116t-116 48zM725 -29h-510q-48 0 -82.5 34.5t-34.5 82.5v505
q0 49 34.5 83t82.5 34h510q48 0 82.5 -34t34.5 -83v-505q0 -48 -34.5 -82.5t-82.5 -34.5zM181 565q0 -11 8 -19.5t19.5 -8.5t20 8.5t8.5 20t-8.5 19.5t-20 8t-19.5 -8t-8 -20zM181 462.5q0 -11.5 8 -20t19.5 -8.5t20 8.5t8.5 20t-8.5 19.5t-20 8t-19.5 -8t-8 -19.5z" />
    <glyph glyph-name="personal-set" unicode="&#xe60a;" 
d="M272 611.5q0 71.5 51.5 123t123 51.5t123 -51.5t51.5 -123t-51.5 -122.5t-123 -51t-123 51t-51.5 122.5zM161 -8q-22 0 -37 15.5t-15 37.5q0 129 88.5 225.5t216.5 108.5h36q88 7 124 39l14 10q42 35 65 82.5t23 101.5q0 96 -69 164.5t-167 68.5q-91 0 -158.5 -69
t-67.5 -164q0 -54 23 -101.5t66 -82.5l16 -10l-16 -6q-114 -45 -183.5 -145t-69.5 -222q0 -47 32.5 -79.5t79.5 -32.5h298q9 0 17.5 8t8.5 22q0 15 -8 22t-18 7h-299zM919 123q-38 -5 -62 -32t-24 -66q0 -17 7 -30l-43 -23l-16 17q-29 19 -56 19q-25 0 -56 -19q-2 -3 -6 -6
t-6.5 -5.5t-3.5 -5.5l-40 23q7 15 7 30q0 37 -24 65t-61 33q0 3 -2 14.5t-2 18.5q0 5 2 16.5t2 16.5q37 5 61 32t24 66q0 18 -7 30l43 23q10 -10 16 -13q29 -20 52 -20t53 20q3 3 9 7t7 6l43 -23q-7 -14 -7 -30q0 -37 24 -65t61 -33q0 -3 2 -14t2 -19q2 -4 2 -9.5t-0.5 -13
t-0.5 -10.5zM965 205q-3 13 -11.5 21.5t-18.5 8.5h-3q-22 0 -37 15t-15 37q0 4 1.5 11.5t1.5 8.5q4 12 0.5 25t-14.5 21l-59 33h-16q-21 0 -30 -14q-23 -23 -39 -23q-5 0 -11.5 3t-11 6t-12 8.5t-8.5 5.5q-13 14 -29 14q-10 0 -14 -4l-62 -32q-10 -8 -14 -21t1 -25
q3 -10 3 -20q0 -22 -15 -37t-37 -15h-4q-9 0 -17.5 -8.5t-11.5 -21.5l-2 -8t-3.5 -19.5t-1.5 -21.5q0 -43 7 -49q2 -12 11 -21t18 -9h4q22 0 37 -15t15 -37q0 -4 -1.5 -11t-1.5 -8q-5 -13 -1 -26t14 -21l59 -32q7 3 16 3q21 0 30 13q26 26 42 26q10 0 23.5 -9t19.5 -17
q13 -13 30 -13q9 0 16 3l59 33q10 7 14 20t-1 26q-3 9 -3 19q0 22 15 37t37 15h3q10 0 18.5 9t11.5 21q7 26 7 49q-9 25 -9 46zM725 114q-17 0 -30 12.5t-13 29.5t13 30t30 13t29.5 -13t12.5 -30q1 -17 -12 -29.5t-30 -12.5zM741 245q-47 10 -81 -24.5t-24 -83.5
q5 -27 25 -47.5t48 -24.5q46 -10 80.5 24t24.5 80q-5 29 -25 50t-48 26z" />
    <glyph glyph-name="calendar" unicode="&#xe60b;" 
d="M382 294h-132v132h132v-132zM581 426h-131v-131h131v131zM780 426h-132v-131h132v131zM382 234h-132v-132h132v132zM581 234h-131v-132h131v132zM780 234h-132v-132h132v132zM829 692q0 -17 -12 -29t-29 -12t-29 12t-12 29v103q0 17 12 29t29 12t29 -12t12 -29v-103z
M280 795q0 17 -12 29t-29 12t-29 -12t-12 -29v-103q0 -17 12 -29t29 -12t29 12t12 29v103zM878 736v-42q0 -37 -26.5 -63.5t-63.5 -26.5t-63.5 26.5t-26.5 63.5v42h-370v-42q0 -37 -26.5 -63.5t-63.5 -26.5t-63.5 26.5t-26.5 63.5v42h-97v-804h921v804h-94zM884 22h-743v497
h743v-497z" />
    <glyph glyph-name="upgrade-button" unicode="&#xe60c;" 
d="M922 845h-820q-21 0 -36 -15t-15 -36v-820q0 -21 15 -36t36 -15h820q21 0 36 15t15 36v820q0 21 -15 36t-36 15zM562 33h-99q-12 0 -20 8t-8 19.5t8 20t20 8.5h99q11 0 19 -8.5t8 -20t-8 -19.5t-19 -8zM596 123h-168q-12 0 -20 8.5t-8 20t8 19.5t20 8h168q11 0 19.5 -8
t8.5 -20q0 -11 -8.5 -19.5t-19.5 -8.5zM759 475l-3 -3h-132v-248q0 -4 -3 -7t-7 -3h-204q-5 0 -8 3t-3 7v248h-132l-3 3q-9 9 0 18l239 238q8 9 17 0l239 -238q4 -4 4 -9t-4 -9z" />
    <glyph glyph-name="delete-button" unicode="&#xe60d;" 
d="M922 845h-820q-21 0 -36 -15t-15 -36v-820q0 -21 15 -36t36 -15h820q21 0 36 15t15 36v820q0 21 -15 36t-36 15zM831 557h-43v-455v-5q-1 -14 -10 -24t-21 -10l-489 -1q-12 0 -20.5 8.5t-10.5 21.5q-1 4 -1 9l-1 455h-42q-13 0 -22.5 11t-9.5 26.5t9.5 26.5t22.5 11h265
v37q0 15 16 26t38.5 11t38.5 -11t16 -26v-37h264q14 0 23 -11t9 -27q0 -15 -9.5 -25.5t-22.5 -10.5zM517 557h-208v-420l406 1v419h-198zM419.5 160q-15.5 0 -26.5 9t-11 22v310q0 13 11 22t26 9t26 -9t11 -22v-310q0 -13 -10.5 -22t-26 -9zM603.5 160q-15.5 0 -26 9
t-10.5 22l-1 310q0 13 11 22t26 9t26 -9t11 -22l1 -310q0 -13 -11 -22t-26.5 -9z" />
    <glyph glyph-name="bulb" unicode="&#xe60e;" 
d="M690 142v-118q0 -15 -11 -25.5t-26 -10.5h-47q-8 -19 -23 -35q-30 -30 -71 -30q-40 0 -71 30q-15 14 -23 35h-47q-16 0 -26.5 10.5t-10.5 25.5v118q-26 19 -40 34q-90 89 -90 218q0 127 90 217t218 90q62 0 118.5 -23t99.5 -67q90 -90 90 -217q0 -129 -90 -218
q-18 -18 -40 -34zM512 429q10 8 19 11q19 8 42 8q22 0 41 -8q23 -10 36 -24q6 -6 6 -15t-6.5 -15.5t-15.5 -6.5t-15 7q-9 9 -21 13q-11 5 -24.5 5t-24.5 -5q-11 -4 -21 -13q-7 -7 -16 -7t-15 7q-10 9 -21 13q-11 5 -25 5t-25 -5q-11 -4 -21 -13q-7 -7 -16 -7t-15 7
q-6 6 -6 15t6 15q14 15 35 24q18 8 42 8q21 0 41 -8q9 -3 20 -11zM534 752q0 -9 -6.5 -15.5t-15.5 -6.5t-15.5 6.5t-6.5 15.5v71q0 9 6.5 15.5t15.5 6.5t15.5 -6.5t6.5 -15.5v-71zM710 694q-5 -8 -13.5 -10.5t-16.5 2.5q-7 4 -9.5 13t2.5 17l35 61q4 7 13 9.5t16 -2.5
q8 -4 10.5 -13t-2.5 -16zM834 553q-8 -4 -17 -1.5t-13 10.5q-5 8 -2.5 16.5t10.5 12.5l61 36q8 4 16.5 1.5t13.5 -9.5q4 -8 1.5 -17t-10.5 -13zM871 372q-9 0 -15.5 6.5t-6.5 15.5t6.5 15.5t15.5 6.5h70q9 0 15.5 -6.5t6.5 -15.5t-6.5 -15.5t-15.5 -6.5h-70zM812 195
q-8 4 -10 13t2 17q5 8 13.5 10t16.5 -2l60 -35q8 -5 10.5 -13.5t-1.5 -16.5q-5 -8 -13.5 -10t-16.5 2zM190 233q8 4 17 2t13 -10t2 -17t-10 -13l-60 -35q-9 -4 -17.5 -2t-13.5 10q-4 8 -1.5 16.5t10.5 13.5zM153 415q9 0 15.5 -6.5t6.5 -14.5q0 -9 -6.5 -16t-15.5 -7h-70
q-9 0 -15.5 7t-6.5 16q0 8 6.5 14.5t15.5 6.5h70zM212 592q9 -4 11 -13t-2 -17q-5 -8 -14 -10.5t-17 2.5l-60 35q-8 5 -10.5 13.5t2 16.5t13.5 10.5t17 -1.5zM352 715q4 -8 2 -17t-10 -13q-8 -5 -17 -2.5t-13 10.5l-35 61q-5 8 -2.5 16.5t10.5 12.5q7 5 16 2.5t14 -9.5z
M633 193l2 1q24 14 42 34q69 69 69 166t-69 166t-165.5 69t-166 -69.5t-69.5 -165.5t70 -166q20 -21 42 -34l2 -1q55 -34 121 -34q68 0 122 34zM408 103v-42h40q15 0 26 -10.5t11 -25.5v-1q0 -11 7.5 -19t19 -8t18.5 8h1q8 9 8 19v1q0 15 10.5 25.5t25.5 10.5h41v42
q-49 -17 -105 -17q-55 0 -103 17z" />
    <glyph glyph-name="search-button" unicode="&#xe60f;" 
d="M489 629q-84 0 -143 -59.5t-59 -143.5t59.5 -143t142.5 -59q84 0 143.5 59.5t59.5 142.5q0 85 -59.5 144t-143.5 59zM922 845h-820q-21 0 -36 -15t-15 -36v-820q0 -21 15 -36t36 -15h820q21 0 36 15t15 36v820q0 21 -15 36t-36 15zM825.5 51.5q-18.5 -18.5 -45 -18.5
t-44.5 18l-103 103q-67 -36 -144 -36q-127 0 -217.5 90.5t-90.5 218t90.5 218t218 90.5t218 -90.5t90.5 -218.5q0 -107 -67 -192l94 -94q19 -18 19 -44t-18.5 -44.5z" />
    <glyph glyph-name="sort-up" unicode="&#xe610;" 
d="M224 499h576l-288 346zM800 269h-576l288 -346z" />
    <glyph glyph-name="business-card" unicode="&#xe611;" 
d="M438 237h-276q1 22 16 36.5t32.5 20t34.5 14t21 19.5v31q-4 2 -9.5 13.5t-6.5 21.5q-10 1 -12 21q-2 10 5 15q-25 100 55 102q25 0 32 -12q16 -3 24 -14t8 -26.5t-1.5 -27.5t-5.5 -22q7 -4 5 -15q-2 -20 -12 -21q-1 -10 -6.5 -21.5t-9.5 -13.5q0 -25 1 -31
q4 -11 21.5 -19.5t35 -14t32.5 -20t16 -36.5zM881 439.5q0 -7.5 -5.5 -13t-13.5 -5.5h-332q-7 0 -12.5 5.5t-5.5 13t5.5 13t12.5 5.5h332q8 0 13.5 -5.5t5.5 -13zM881 347q0 -8 -5.5 -13t-13.5 -5h-332q-7 0 -12.5 5t-5.5 13t5.5 13.5t12.5 5.5h332q8 0 13.5 -5.5t5.5 -13.5
zM881 255q0 -8 -5.5 -13t-13.5 -5h-332q-7 0 -12.5 5t-5.5 13t5.5 13t12.5 5h332q8 0 13.5 -5t5.5 -13zM973 605v-516q0 -23 -16.5 -39t-38.5 -16h-74q-8 0 -13.5 5.5t-5.5 13t5.5 13t13.5 5.5h74q7 0 12.5 5t5.5 13v516q0 8 -5.5 13.5t-12.5 5.5h-406q-8 0 -13 5t-5 13v37
q0 8 -5.5 13t-13.5 5h-369q-7 0 -12.5 -5t-5.5 -13v-590q0 -8 5.5 -13t12.5 -5h93v55q0 8 5 13t13 5h74q7 0 12.5 -5t5.5 -13t-5.5 -13t-12.5 -5h-55v-56q0 -7 -5.5 -12.5t-13.5 -5.5h-111q-22 0 -38.5 16t-16.5 39v590q0 23 16.5 39t38.5 16h369q23 0 39 -16t16 -39v-19
h388q22 0 38.5 -16t16.5 -39zM825 126q0 -8 -5 -13t-13 -5h-55v-56q0 -7 -5.5 -12.5t-13.5 -5.5h-405q-8 0 -13.5 5.5t-5.5 13t5.5 13t13.5 5.5h387v55q0 8 5.5 13t12.5 5h74q8 0 13 -5t5 -13z" />
    <glyph glyph-name="up" unicode="&#xe612;" 
d="M512 721l461 -798h-922z" />
    <glyph glyph-name="search" unicode="&#xe613;" 
d="M482 34q-110 0 -203 54.5t-147.5 147.5t-54.5 203t54.5 203.5t147.5 147.5t203 54t203.5 -54t147.5 -147.5t54 -203.5t-54 -203t-147.5 -147.5t-203.5 -54.5zM482 706q-110 0 -187.5 -78t-77.5 -188t77.5 -188t187.5 -78t188 78t78 188t-77.5 188t-188.5 78zM657 95
q-24 24 -24 58.5t24.5 59t58.5 24.5t59 -25l147 -147q24 -24 24 -58.5t-24 -58.5t-58.5 -24t-58.5 24z" />
    <glyph glyph-name="exit" unicode="&#xe614;" 
d="M965 408l-154 192q-12 14 -30 14q-8 0 -13 -2q-26 -9 -26 -36v-115h-307q-32 0 -54.5 -22.5t-22.5 -54.5t22.5 -54.5t54.5 -22.5h307v-115q0 -27 26 -36q5 -2 13 -2q18 0 30 14l154 192q8 11 8 24t-8 24v0zM589 77h-308q-31 0 -53.5 22.5t-22.5 54.5v461q0 31 22.5 53.5
t54.5 22.5h307q32 0 54.5 22.5t22.5 54.5t-22.5 54.5t-54.5 22.5h-384q-64 0 -109 -45t-45 -109v-614q0 -64 45 -109t109 -45h384q32 0 54.5 22.5t22.5 54.5t-22.5 54.5t-54.5 22.5z" />
    <glyph glyph-name="left" unicode="&#xe615;" 
d="M175 384l798 461v-922z" />
    <glyph glyph-name="right" unicode="&#xe616;" 
d="M849 384l-798 -461v922z" />
    <glyph glyph-name="down" unicode="&#xe617;" 
d="M512 47l-461 798h922z" />
    <glyph glyph-name="sort-down" unicode="&#xe618;" 
d="M800 269h-576l288 -346zM224 499h576l-288 346z" />
    <glyph glyph-name="book" unicode="&#xe619;" 
d="M247 -77h670v114h-807q9 -49 47.5 -81.5t89.5 -32.5zM623 845v-495l-112 80l-110 -80v495h-154q-58 0 -98.5 -41t-40.5 -99v-642q0 58 40.5 99t98.5 41h670v642h-294z" />
    <glyph glyph-name="star" unicode="&#xe61a;" 
d="M512 822l142 -288l319 -47l-231 -224l55 -317l-285 149l-285 -149l55 317l-231 224l319 47z" />
    <glyph glyph-name="windows" unicode="&#xe61b;" 
d="M476 485q0 -32 -22.5 -54t-53.5 -22h-271q-32 0 -54.5 22t-22.5 54v283q0 31 22.5 53.5t54.5 22.5h271q31 0 53.5 -22.5t22.5 -53.5v-283zM476 0q0 -31 -22.5 -53.5t-53.5 -22.5h-271q-32 0 -54.5 22.5t-22.5 53.5v283q0 32 22.5 54t54.5 22h271q31 0 53.5 -22t22.5 -54
v-283v0zM972 485q0 -32 -22.5 -54t-53.5 -22h-271q-32 0 -54.5 22t-22.5 54v283q0 31 22.5 53.5t54.5 22.5h271q31 0 53.5 -22.5t22.5 -53.5v-283zM548 283q0 32 22.5 54t53.5 22h271q32 0 54.5 -22t22.5 -54v-11q0 -94 -47 -174.5t-127 -127t-174 -46.5q-31 0 -53.5 22.5
t-22.5 54.5v282z" />
    <glyph glyph-name="file" unicode="&#xe61c;" 
d="M916 595v55q0 23 -16 39.5t-39 16.5h-477l-1 0.5t-3 2t-4 4.5q-1 1 -14 20q-9 16 -14.5 23t-16 15t-21.5 8h-202q-23 0 -39 -16.5t-16 -39.5v-628v-0.5v-1t1 -0.5v-1v-1l0.5 -0.5l0.5 -0.5v0l2 -4h1l0.5 -0.5l0.5 -0.5l1 -2h1v0q1 0 1 -1v0q1 0 1 -1h0.5h1t1 -0.5
l0.5 -0.5h2h5h1h1.5t0.5 1v0q1 0 1 1h0.5h0.5v0l1.5 1.5l0.5 0.5l3 3l0.5 0.5l0.5 0.5v0.5v0.5q0 1 1 1v2l0.5 0.5l0.5 0.5l92 443v2q0 7 5 12.5t13 5.5h716q7 0 12.5 -5t5.5 -12l-91 -493v-5q0 -7 -5.5 -12.5t-12.5 -5.5h-536q-8 0 -13.5 -5.5t-5.5 -13t5.5 -13t13.5 -5.5
h539q23 0 39 15.5t17 37.5l91 495l1 1v2q-1 25 -17 41.5t-39 16.5zM879 595h-679q-23 0 -38.5 -15.5t-17.5 -37.5l-54 -264v445q0 8 5 13t13 5h202l1 -0.5t2.5 -2t3.5 -4.5q7 -8 15 -21q9 -15 14.5 -22.5t16 -15t20.5 -7.5h478q7 0 12.5 -5.5t5.5 -12.5v-55zM66 82h-0.5
h-0.5h0.5h0.5z" />
    <glyph glyph-name="return" unicode="&#xe61d;" 
d="M512 -78q-94 0 -179.5 36.5t-147.5 98.5t-98.5 147.5t-36.5 179.5t36.5 179.5t98.5 147.5t147.5 98.5t179.5 36.5t179.5 -36.5t147.5 -98.5t98.5 -147.5t36.5 -179.5t-36.5 -179.5t-98.5 -147.5t-147.5 -98.5t-179.5 -36.5zM512 788q-110 0 -203 -54t-147 -147t-54 -203
t54 -203t147 -147t203 -54t203 54t147 147t54 203t-54 203t-147 147t-203 54zM714 355h-305l118 -118q9 -9 9 -21t-8.5 -20.5t-20.5 -8.5t-21 9l-163 163q-10 10 -8 26q-2 15 8 25l163 163q9 9 21 9t20.5 -8.5t8.5 -20.5t-9 -21l-118 -118h305q12 0 20.5 -8.5t8.5 -20.5
q0 -13 -8.5 -21.5t-20.5 -8.5z" />
    <glyph glyph-name="distribution" unicode="&#xe61e;" 
d="M922 845h-820q-21 0 -36 -15t-15 -36v-820q0 -21 15 -36t36 -15h820q21 0 36 15t15 36v820q0 21 -15 36t-36 15zM336 691q0 12 9 20.5t21 8.5h87q12 0 20.5 -8.5t8.5 -20.5v-146q0 -12 -8.5 -20.5t-20.5 -8.5h-87q-13 0 -21.5 8.5t-8.5 20.5v146zM161 639q0 10 7 16.5
t16 6.5h123v-88h-123q-9 0 -16 6.5t-7 16.5v42zM161 405q0 10 7 16.5t16 6.5h357v-88h-357q-9 0 -16 6.5t-7 16.5v42zM395 106h-211q-9 0 -16 6.5t-7 16.5v41q0 10 7 17t16 7h211v-88zM570 77q0 -12 -8.5 -20.5t-20.5 -8.5h-87q-13 0 -21.5 8.5t-8.5 20.5v146q0 12 9 20.5
t21 8.5h87q12 0 20.5 -8.5t8.5 -20.5v-146zM570 311v146q0 12 9 20.5t21 8.5h87q12 0 20.5 -8.5t8.5 -20.5v-146q0 -12 -8.5 -20.5t-20.5 -8.5h-87q-12 0 -21 8.5t-9 20.5zM863 129q0 -10 -7 -16.5t-16 -6.5h-240v88h240q9 0 16 -6.5t7 -16.5v-42zM863 363q0 -10 -7 -16.5
t-16 -6.5h-94v88h94q9 0 16 -7t7 -17v-41zM863 598q0 -10 -7 -17t-16 -7h-328v89h328q9 0 16 -7t7 -17v-41z" />
    <glyph glyph-name="lock" unicode="&#xe61f;" 
d="M619 581q0 25 -37 45t-74 20q-36 0 -70.5 -20t-34.5 -45v-113h216v113zM922 845h-820q-21 0 -36 -15t-15 -36v-820q0 -21 15 -36t36 -15h820q21 0 36 15t15 36v820q0 21 -15 36t-36 15zM837 77q0 -18 -16 -31t-38 -13h-542q-23 0 -39 13t-16 31v347q0 19 16 31.5t39 12.5
h52v114q0 61 68 107t149.5 46t150.5 -46t69 -107v-55v-59h53q22 0 38 -12.5t16 -31.5v-347z" />
    <glyph glyph-name="relation" unicode="&#xe620;" 
d="M922 845h-820q-21 0 -36 -15t-15 -36v-820q0 -21 15 -36t36 -15h820q21 0 36 15t15 36v820q0 21 -15 36t-36 15zM479 123l-35 -34q-48 -47 -117 -47t-117 47q-49 47 -49 113.5t49 113.5l130 127q62 59 126.5 66.5t111.5 -37.5q13 -13 13 -30.5t-13 -30t-31 -12.5t-30 13
q-43 41 -116 -29l-130 -126q-23 -23 -23 -54t23 -53t55.5 -22t55.5 22l36 34q12 13 30.5 13t30.5 -13q13 -13 13 -30.5t-13 -30.5zM814 447l-139 -135q-65 -63 -131 -63q-55 0 -98 43q-13 12 -13 29.5t13 30.5q13 12 31 12t30 -12q8 -8 14 -11.5t19.5 -6.5t32 7t41.5 31
l139 135q23 22 23 54q0 31 -23 53t-49.5 26t-53.5 -18l-44 -43q-12 -12 -30.5 -12t-30.5 12q-13 13 -13 30.5t13 29.5l44 43q48 46 111.5 43.5t114.5 -51.5q48 -47 48 -114q-1 -66 -49 -113z" />
    <glyph glyph-name="recovery" unicode="&#xe621;" 
d="M922 845h-820q-21 0 -36 -15t-15 -36v-820q0 -21 15 -36t36 -15h820q21 0 36 15t15 36v820q0 21 -15 36t-36 15zM744 115q-44 -40 -102.5 -61t-121.5 -21q-75 0 -142 32q-10 5 -7 16q4 11 16 10q128 -20 212 48q35 28 56.5 69t23.5 84q2 50 -19 99t-64 74q-39 22 -88 18
l36 -103l-368 73l247 282l30 -89q122 26 213 -12q64 -27 112 -83.5t63 -125.5q18 -91 -6.5 -170.5t-90.5 -139.5z" />
    <glyph glyph-name="give-up" unicode="&#xe622;" 
d="M922 845h-820q-21 0 -36 -15t-15 -36v-820q0 -21 15 -36t36 -15h820q21 0 36 15t15 36v820q0 21 -15 36t-36 15zM201 455q0 11 8 18l18 15q4 104 79.5 176t179.5 72q102 0 177 -70t81 -171l30 -8q17 -3 19 -22v-102q0 -10 -7 -17t-16.5 -7t-16.5 7t-7 17v84l-29 7
q-18 4 -18 23q0 88 -62.5 150t-150 62t-150 -62t-62.5 -150q0 -11 -8 -18l-18 -15v-81q0 -10 -7 -17t-16.5 -7t-16.5 7t-7 17v92zM432 264q10 -8 10 -20v-36q0 -8 -6 -15t-15 -8q-80 -8 -130 -34t-50 -53q0 -9 -7 -16t-17 -7t-16.5 7t-6.5 16q0 47 54.5 82t146.5 49v3
q-41 32 -66 84.5t-25 109.5q0 53 11 93.5t29 64t42.5 38.5t48.5 20.5t51.5 5.5t51 -5.5t48.5 -20t42.5 -38.5t29 -64.5t11.5 -93.5q0 -9 -7 -16t-16.5 -7t-16.5 7t-7 16q0 46 -9 79t-22 51t-32.5 29t-36 14t-37 3t-36.5 -3t-35.5 -13.5t-32.5 -29t-21.5 -51.5t-8.5 -79
q0 -49 22.5 -94t58.5 -68zM490 324.5q0 9.5 7 16.5t17 7q59 0 100.5 9t55.5 18t17 17l23 -5l23 -3q-1 -7 -4 -14.5t-17 -20.5t-35.5 -23t-64 -17.5t-98.5 -7.5q-10 0 -17 7t-7 16.5zM830 168q0 -56 -39.5 -95.5t-95 -39.5t-95 39.5t-39.5 95.5t39.5 95.5t95.5 39.5
q55 0 94.5 -39.5t39.5 -95.5zM793 237q0 13 -9 20q-6 7 -18 7q-10 0 -17 -7l-53 -53l-53 53q-7 7 -17 7q-12 0 -19 -7q-8 -7 -8 -20q0 -7 8 -15l53 -53l-53 -53q-8 -7 -8 -17q0 -12 8 -19q8 -8 20 -8q11 0 15 8l53 54l54 -54q5 -8 14 -8q14 0 20 8q9 7 9 19q0 10 -9 17
l-53 53l53 53q10 9 10 15z" />
    <glyph glyph-name="add-money" unicode="&#xe623;" 
d="M922 845h-820q-21 0 -36 -15t-15 -36v-820q0 -21 15 -36t36 -15h820q21 0 36 15t15 36v820q0 21 -15 36t-36 15zM589 152q0 -49 -63 -84t-151.5 -35t-151 34.5t-62.5 84.5v46q0 -49 62.5 -83.5t151.5 -34.5t151.5 35t62.5 84v-47zM589 233q0 -48 -63 -83t-151.5 -35
t-151 34.5t-62.5 83.5v47q0 -49 62.5 -83.5t151.5 -34.5t151.5 34.5t62.5 84.5v-48zM375 198q-88 0 -151 34.5t-63 83.5t63 83.5t151.5 34.5t151 -34.5t62.5 -83.5t-62.5 -83.5t-151.5 -34.5zM435 535v46q1 -49 63.5 -83.5t150.5 -34.5q89 0 151.5 35t62.5 84v-47
q0 -49 -62.5 -84t-151.5 -35q-45 0 -89 11q-33 21 -78 34q-47 32 -47 74zM863 288q0 -49 -63 -83.5t-151 -34.5h-19v28q0 5 -2 13v7q7 -1 21 -1q88 0 151 34.5t63 83.5v-47zM863 370q0 -49 -63 -83.5t-151 -34.5h-19v28q0 5 -2 13v7q7 -1 21 -1q88 0 151 34.5t63 83.5v-47z
M863 453q0 -49 -63 -84t-151 -35q-14 0 -21 1q-4 26 -21 48q18 -2 42 -2q88 0 151 35t63 84v-47zM648.5 499q-88.5 0 -151 34.5t-62.5 83.5t62.5 83.5t151 34.5t151.5 -34.5t63 -83.5t-63 -83.5t-151.5 -34.5z" />
    <glyph glyph-name="unlock" unicode="&#xe624;" 
d="M922 845h-820q-21 0 -36 -15t-15 -36v-820q0 -21 15 -36t36 -15h820q21 0 36 15t15 36v820q0 21 -15 36t-36 15zM726 52h-513q-21 0 -36 12t-15 30v328q0 18 15 29.5t36 11.5h513q21 0 36 -12t15 -29v-328q0 -18 -15 -30t-36 -12zM861 527h-103v43q0 24 -35 43t-70 19
q-34 0 -67 -19t-33 -43v-216h-103v217q0 58 64 101t141 43q50 0 98.5 -19t79.5 -53t30 -72z" />
    <glyph glyph-name="review" unicode="&#xe625;" 
d="M271 164h498v33q0 6 -5 10.5t-11 4.5q-64 0 -131 41q-78 47 -78 106v21q0 27 8 42t41 49l1 1q46 39 46 99q0 54 -37.5 92t-90.5 38t-90.5 -38t-37.5 -92q0 -61 46 -99l1 -1q33 -33 42 -50q8 -16 8 -45v-17q0 -59 -78 -106q-67 -41 -132 -41q-6 0 -11 -4.5t-5 -10.5v-33
h16v0zM287 131h450v-64h-450v64zM922 845h-820q-21 0 -36 -15t-15 -36v-820q0 -21 15 -36t36 -15h820q21 0 36 15t15 36v820q0 21 -15 36t-36 15zM802 147q0 -6 -4.5 -11t-11.5 -5h-15v-81q0 -7 -5 -12t-12 -5h-483q-6 0 -11 5t-5 12v81h-16q-7 0 -11.5 5t-4.5 11v50
q0 20 14 34.5t34 14.5q34 0 75 15.5t71.5 43t30.5 54.5v17q0 21 -5.5 31.5t-33.5 39.5q-58 49 -58 124q0 68 47 116q48 48 115 48q66 0 114 -48q47 -48 47 -116q0 -75 -57 -124q-28 -29 -33.5 -38.5t-5.5 -28.5v-21q0 -27 30 -54.5t71 -43t75 -15.5q20 0 34.5 -14.5
t14.5 -34.5v-50h-1z" />
    <glyph glyph-name="delete" unicode="&#xe626;" 
d="M922 845h-820q-21 0 -36 -15t-15 -36v-820q0 -21 15 -36t36 -15h820q21 0 36 15t15 36v820q0 21 -15 36t-36 15zM833 194q30 -25 30 -61q0 -42 -30 -66q-25 -31 -73 -31q-37 0 -54 31l-194 193l-194 -193q-18 -31 -54 -31q-42 0 -73 31q-30 23 -30 66q0 37 30 61l194 193
l-194 194q-30 29 -30 54q0 48 30 73q25 24 67 24q36 0 60 -24l194 -194l194 194q24 24 60 24q42 0 67 -24q30 -25 30 -73q0 -24 -30 -54l-194 -194z" />
    <glyph glyph-name="receive" unicode="&#xe627;" 
d="M922 845h-820q-21 0 -36 -15t-15 -36v-820q0 -21 15 -36t36 -15h820q21 0 36 15t15 36v820q0 21 -15 36t-36 15zM334 666q0 20 14.5 34.5t34.5 14.5h337q21 0 35.5 -14.5t14.5 -34.5v-293q0 -9 -6.5 -15t-15 -6t-14.5 6t-6 15v293q0 7 -8 7h-337q-7 0 -7 -7v-293
q0 -9 -6 -15t-15 -6t-15 6t-6 15v293zM467 495v42h235v-42h-235zM702 439v-42h-235v42h235zM467 592v42h235v-42h-235zM437 501q-6 -6 -15 -6t-14 6q-7 6 -7 15t7 14q6 7 14.5 7t14.5 -6.5t6 -14.5q0 -10 -6 -15zM444 418q0 -10 -6 -15q-6 -6 -15 -6q-10 0 -15 6
q-6 6 -6 14.5t6 15t15 6.5t15 -6.5t6 -14.5zM437 598q-6 -6 -15 -6t-14 6q-7 6 -7 15t6.5 15t15 6t14.5 -6t6 -15q1 -8 -6 -15zM354 94q-10 -7 -44 -35q-17 -14 -34 3q-2 3 -102 96q-22 21 -6 32t47 35q15 12 30 -1q6 -6 58 -52t55 -49q15 -15 -4 -29zM843 274
q-142 -119 -188 -126q-24 -4 -107 0.5t-93 2.5q-11 -2 -24 -7.5t-21 -9.5l-8 -4l-15 -1l-117 103l-3 12q9 8 24 20t51 33.5t60 23.5q14 1 57.5 0t76 -2.5t73 -4t46.5 -2.5q27 -1 30 -18q3 -14 -17 -18q-2 0 -4 -1q-14 -1 -50.5 -3.5t-66 -5t-33.5 -3.5q-11 -3 -11 -13
q-1 -13 36 -17q112 -11 143 -7q11 2 35.5 18t51 36t34.5 25t19 7.5t22.5 0.5t17.5 -10q2 -3 -4 -12.5t-15 -16.5z" />
    <glyph glyph-name="follow-up-record" unicode="&#xe629;" 
d="M409 222l-68 -68l-19 19q-6 6 -14.5 6t-14.5 -6q-6 -7 -6 -15.5t6 -14.5l34 -33q6 -7 14.5 -7t14.5 7l83 83q6 6 6 14.5t-6 14.5q-6 5 -15 5t-15 -5zM489 712h117v-21h-117v21zM922 845h-820q-21 0 -36 -15t-15 -36v-820q0 -21 15 -36t36 -15h820q21 0 36 15t15 36v820
q0 21 -15 36t-36 15zM386 691h80v44h162v-44h81v-71q0 -20 -14 -34t-33 -14h-230q-19 0 -33 14t-14 34v71h1zM516 305q5 -5 5 -11v-18q0 -11 -11 -12q-17 -2 -20 -3q-10 13 -18 21l25 5v1q-21 16 -33.5 42t-12.5 56l-0.5 1l-0.5 1q0 64 27 89t67 25q93 0 93 -114v-2
q0 -6 -1 -16q-8 -6 -27 -10q4 15 4 28q0 25 -4 42q-13 48 -65 48t-65 -48q-5 -17 -5 -42t11.5 -48t30.5 -35zM558 348q30 0 51.5 4.5t28.5 9.5t9 9l12 -3l12 -1q-1 -4 -2.5 -8t-8.5 -10.5t-18.5 -12t-33.5 -9t-50 -3.5q-5 0 -9 3.5t-4 8.5t4 8.5t9 3.5zM566 294q0 7 6 11
q9 6 15 12q18 2 33 5q-12 -21 -29 -34v-1q48 -7 76 -25t28 -42q0 -5 -4 -9t-8.5 -4t-8.5 4t-4 9q0 13 -25.5 26.5t-67.5 17.5q-11 1 -11 12v18zM690 344q-5 0 -9 3.5t-4 8.5v43l-14 3q-10 3 -10 12q0 46 -32 78t-77.5 32t-77.5 -32t-32 -78q0 -5 -4 -9l-9 -7v-42
q0 -5 -3.5 -8.5t-8.5 -3.5t-9 3.5t-4 8.5v47q0 6 4 10l9 7q2 54 41 91t93 37q53 0 91 -36t42 -88l15 -4q9 -2 10 -12v-53q1 -4 -2.5 -7.5t-8.5 -3.5zM304 665h63v-38h-25v-310q-1 0 -2 -0.5t-2 -0.5q-17 -2 -34 -10v359zM461 74q-30 -31 -70 -38t-74.5 6.5t-58.5 46.5
t-24 76q0 38 19.5 69.5t52.5 48.5q59 30 117 2q33 -16 54 -48q16 -25 20.5 -52t-4 -56.5t-32.5 -54.5zM791 186q0 -40 -28.5 -67.5t-67.5 -27.5h-193q10 18 14 38h167q29 0 49 20t20 49v429h-24v38h62v-479h1z" />
    <glyph glyph-name="operation-record" unicode="&#xe628;" 
d="M409 221l-69 -68l-18 19q-6 6 -15 6t-15 -6t-6 -14.5t6 -14.5l34 -34q6 -6 15 -6t15 6l83 83q6 6 6 14.5t-7 14.5q-6 6 -14.5 6t-14.5 -6zM489 712h117v-21h-117v21zM922 845h-820q-21 0 -36 -15t-15 -36v-820q0 -21 15 -36t36 -15h820q21 0 36 15t15 36v820q0 21 -15 36
t-36 15zM711 486q1 3 4 0l0.5 -0.5l0.5 -0.5v-1l3 -6q9 -20 9 -42q0 -43 -31 -74t-75 -31q-18 0 -35 6h-1l-66 -65q-10 -9 -24 -12q-20 30 -51 45q1 18 13 30l65 65v1q-6 17 -6 35q0 44 31 75t74 31q21 0 42 -9l4 -2h1l1 -1q1 -2 1 -3q0 -2 -1 -3l-60 -61l39 -39zM386 691
h80v44h163v-44h80v-71q0 -20 -13.5 -34t-33.5 -14h-229q-20 0 -33.5 14t-13.5 34v71zM304 665h63v-38h-25v-310q-1 -1 -4 -1q-17 -2 -34 -10v359zM460 74q-29 -31 -69.5 -38t-74.5 6.5t-58.5 46.5t-24.5 76q0 38 20 69.5t52 48.5q60 30 117 2q34 -18 54 -48q16 -24 21 -51.5
t-4 -57t-33 -54.5zM791 186q0 -39 -28 -67t-68 -28h-192q10 19 14 38h167q28 0 48.5 20t20.5 49v429h-25v38h63v-479z" />
    <glyph glyph-name="tips" unicode="&#xe62a;" 
d="M351 694q-86 -44 -138 -127.5t-52 -183.5q0 -76 29.5 -142.5t78 -111t112 -70t129 -27t133 26t119.5 81.5q51 53 76.5 114t25.5 119.5t-19.5 115t-54.5 103t-84.5 81t-106 50.5t-121.5 9.5t-127 -38.5zM512 174q-18 0 -31.5 13t-13.5 31.5t13.5 31.5t31.5 13t31.5 -13
t13.5 -31.5t-13.5 -31.5t-31.5 -13zM557 343q0 -19 -13.5 -32t-31.5 -13t-31.5 13t-13.5 32v207q0 18 13.5 31t31.5 13t31.5 -13t13.5 -31v-207z" />
    <glyph glyph-name="add" unicode="&#xe62b;" 
d="M351 694q-86 -44 -138 -127.5t-52 -183.5q0 -76 29.5 -142.5t78 -111t112 -70t129 -27t133 26t119.5 81.5q51 53 76.5 114t25.5 119.5t-19.5 115t-54.5 103t-84.5 81t-106 50.5t-121.5 9.5t-127 -38.5zM661 339h-104v-104q0 -18 -13.5 -31.5t-31.5 -13.5t-31.5 13.5
t-13.5 31.5v104h-104q-18 0 -31.5 13.5t-13.5 31.5t13.5 31.5t31.5 13.5h104v104q0 18 13.5 31.5t31.5 13.5t31.5 -13.5t13.5 -31.5v-104h104q18 0 31.5 -13.5t13.5 -31.5t-13.5 -31.5t-31.5 -13.5z" />
    <glyph glyph-name="wrong" unicode="&#xe62c;" 
d="M351 694q-86 -44 -138 -127.5t-52 -183.5q0 -76 29.5 -142.5t78 -111t112 -70t129 -27t133 26t119.5 81.5q51 53 76.5 114t25.5 119.5t-19.5 115t-54.5 103t-84.5 81t-106 50.5t-121.5 9.5t-127 -38.5zM649 310q13 -13 13 -31.5t-13 -31.5t-31.5 -13t-31.5 13l-74 74
l-74 -74q-13 -13 -31.5 -13t-31.5 13t-13 31.5t13 31.5l74 74l-74 74q-13 13 -13 31.5t13 31.5t31.5 13t31.5 -13l74 -74l74 74q13 13 31.5 13t31.5 -13t13 -31.5t-13 -31.5l-74 -74z" />
    <glyph glyph-name="more" unicode="&#xe62d;" 
d="M922 845h-820q-21 0 -36 -15t-15 -36v-820q0 -21 15 -36t36 -15h820q21 0 36 15t15 36v820q0 21 -15 36t-36 15zM284.5 320q-26.5 0 -45.5 19t-19 45t19 45t45.5 19t45 -19t18.5 -45t-18.5 -45t-45 -19zM512 320q-26 0 -45 19t-19 45t19 45t45 19t45 -19t19 -45t-19 -45
t-45 -19zM739.5 320q-26.5 0 -45 19t-18.5 45t18.5 45t45 19t45.5 -19t19 -45t-19 -45t-45.5 -19z" />
    <glyph glyph-name="del" unicode="&#xe62e;" 
d="M351 694q-86 -44 -138 -127.5t-52 -183.5q0 -76 29.5 -142.5t78 -111t112 -70t129 -27t133 26t119.5 81.5q51 53 76.5 114t25.5 119.5t-19.5 115t-54.5 103t-84.5 81t-106 50.5t-121.5 9.5t-127 -38.5zM363 339q-18 0 -31.5 13.5t-13.5 31.5t13.5 31.5t31.5 13.5h298
q18 0 31.5 -13.5t13.5 -31.5t-13.5 -31.5t-31.5 -13.5h-298z" />
  </font>
</defs>
</svg>
